<svg xmlns="http://www.w3.org/2000/svg" viewBox="0 0 1380 730" width="1380" height="730"><style>.t{font-family:'Inter',system-ui,'Segoe UI',sans-serif}.m{font-family:ui-monospace,'Cascadia Code','Consolas',monospace}</style><defs><pattern id="gf" width="30" height="30" patternUnits="userSpaceOnUse"><path d="M30 0H0V30" fill="none" stroke="rgba(53,195,242,.06)" stroke-width="1"/></pattern><pattern id="gm" width="120" height="120" patternUnits="userSpaceOnUse"><path d="M120 0H0V120" fill="none" stroke="rgba(0,191,255,.10)" stroke-width="1"/></pattern><filter id="ag" x="-40%" y="-40%" width="180%" height="180%"><feDropShadow dx="0" dy="0" stdDeviation="3" flood-color="#f7c02e" flood-opacity="0.55"/></filter><filter id="cg" x="-40%" y="-40%" width="180%" height="180%"><feDropShadow dx="0" dy="0" stdDeviation="4" flood-color="#35c3f2" flood-opacity="0.25"/></filter><marker id="aMut" viewBox="0 0 10 10" refX="8.5" refY="5" markerWidth="7" markerHeight="7" orient="auto-start-reverse"><path d="M0 0 L10 5 L0 10 z" fill="rgba(157,178,198,.55)"/></marker><marker id="aCy" viewBox="0 0 10 10" refX="8.5" refY="5" markerWidth="7" markerHeight="7" orient="auto-start-reverse"><path d="M0 0 L10 5 L0 10 z" fill="#00bfff"/></marker><marker id="aAm" viewBox="0 0 10 10" refX="8.5" refY="5" markerWidth="7" markerHeight="7" orient="auto-start-reverse"><path d="M0 0 L10 5 L0 10 z" fill="#f7c02e"/></marker></defs><rect x="0" y="0" width="1380" height="730" fill="#0a141f"/><rect x="0" y="0" width="1380" height="730" fill="url(#gf)"/><rect x="0" y="0" width="1380" height="730" fill="url(#gm)"/><text x="26" y="34" class="m" font-size="12.5" letter-spacing="0.08em" fill="#35c3f2">FIG. 01 — PIPELINE</text><text x="26" y="52" class="m" font-size="10.5" fill="#6f8498">Entrenamiento (offline) -&gt; el modelo entrenado viaja -&gt; inferencia en vivo. Mismo codigo = no es simulacion.</text><rect x="28" y="98" width="1324" height="146" rx="8" fill="none" stroke="#9db2c6" stroke-width="1.1" stroke-dasharray="2 5" opacity="0.5"/><text x="42" y="90" class="m" font-size="11" letter-spacing="0.06em" fill="#9db2c6">A · ENTRENAMIENTO (UNA SOLA VEZ, OFFLINE)</text><rect x="40" y="118" width="152" height="90" rx="6" fill="#131f2c" stroke="rgba(255,255,255,.20)" stroke-width="1.4"/><text x="53" y="141" class="t" font-size="13" font-weight="600" fill="#e7f2fb">Dataset</text><line x1="52" y1="150" x2="180" y2="150" stroke="rgba(255,255,255,.10)"/><text x="53" y="168" class="m" font-size="10.5" fill="#9db2c6">COSWARA+Virufy</text><text x="53" y="185" class="m" font-size="10.5" fill="#9db2c6">1357 toses</text><text x="53" y="202" class="m" font-size="10.5" fill="#9db2c6">89% neg/11% pos</text><line x1="192" y1="163.0" x2="226" y2="163.0" stroke="rgba(157,178,198,.55)" stroke-width="1.5" marker-end="url(#aMut)"/><rect x="226" y="118" width="152" height="90" rx="6" fill="#131f2c" stroke="rgba(255,255,255,.20)" stroke-width="1.4"/><text x="239" y="141" class="t" font-size="13" font-weight="600" fill="#e7f2fb">Limpieza</text><line x1="238" y1="150" x2="366" y2="150" stroke="rgba(255,255,255,.10)"/><text x="239" y="168" class="m" font-size="10.5" fill="#9db2c6">Postive-&gt;Positive</text><text x="239" y="185" class="m" font-size="10.5" fill="#9db2c6">dedup · mp3 ok</text><text x="239" y="202" class="m" font-size="10.5" fill="#9db2c6">descarta Unknown</text><line x1="378" y1="163.0" x2="412" y2="163.0" stroke="rgba(157,178,198,.55)" stroke-width="1.5" marker-end="url(#aMut)"/><rect x="412" y="118" width="152" height="90" rx="6" fill="#131f2c" stroke="rgba(255,255,255,.20)" stroke-width="1.4"/><text x="425" y="141" class="t" font-size="13" font-weight="600" fill="#e7f2fb">features.py</text><line x1="424" y1="150" x2="552" y2="150" stroke="rgba(255,255,255,.10)"/><text x="425" y="168" class="m" font-size="10.5" fill="#9db2c6">librosa 22050</text><text x="425" y="185" class="m" font-size="10.5" fill="#9db2c6">MFCC(20)+espec.</text><text x="425" y="202" class="m" font-size="10.5" fill="#9db2c6">media+std = 64</text><line x1="564" y1="163.0" x2="598" y2="163.0" stroke="rgba(157,178,198,.55)" stroke-width="1.5" marker-end="url(#aMut)"/><rect x="598" y="118" width="152" height="90" rx="6" fill="#131f2c" stroke="rgba(255,255,255,.20)" stroke-width="1.4"/><text x="611" y="141" class="t" font-size="13" font-weight="600" fill="#e7f2fb">features.csv</text><line x1="610" y1="150" x2="738" y2="150" stroke="rgba(255,255,255,.10)"/><text x="611" y="168" class="m" font-size="10.5" fill="#9db2c6">tabla 40 cols</text><text x="611" y="185" class="m" font-size="10.5" fill="#9db2c6">reproducible</text><text x="611" y="202" class="m" font-size="10.5" fill="#9db2c6">sin re-leer audio</text><line x1="750" y1="163.0" x2="784" y2="163.0" stroke="rgba(157,178,198,.55)" stroke-width="1.5" marker-end="url(#aMut)"/><rect x="784" y="118" width="152" height="90" rx="6" fill="#131f2c" stroke="rgba(255,255,255,.20)" stroke-width="1.4"/><text x="797" y="141" class="t" font-size="13" font-weight="600" fill="#e7f2fb">StandardScaler</text><line x1="796" y1="150" x2="924" y2="150" stroke="rgba(255,255,255,.10)"/><text x="797" y="168" class="m" font-size="10.5" fill="#9db2c6">.fit(X)</text><text x="797" y="185" class="m" font-size="10.5" fill="#9db2c6">media 0, var 1</text><text x="797" y="202" class="m" font-size="10.5" fill="#9db2c6">guarda mu/sigma</text><line x1="936" y1="163.0" x2="970" y2="163.0" stroke="rgba(157,178,198,.55)" stroke-width="1.5" marker-end="url(#aMut)"/><rect x="970" y="118" width="152" height="90" rx="6" fill="#131f2c" stroke="rgba(255,255,255,.20)" stroke-width="1.4"/><text x="983" y="141" class="t" font-size="13" font-weight="600" fill="#e7f2fb">SVC rbf C=10</text><line x1="982" y1="150" x2="1110" y2="150" stroke="rgba(255,255,255,.10)"/><text x="983" y="168" class="m" font-size="10.5" fill="#9db2c6">.fit(Xs,y)</text><text x="983" y="185" class="m" font-size="10.5" fill="#9db2c6">probability=True</text><text x="983" y="202" class="m" font-size="10.5" fill="#9db2c6">random_state=42</text><line x1="1122" y1="163.0" x2="1156" y2="163.0" stroke="rgba(157,178,198,.55)" stroke-width="1.5" marker-end="url(#aMut)"/><rect x="1156" y="118" width="152" height="90" rx="6" fill="#131f2c" stroke="rgba(255,255,255,.20)" stroke-width="1.4"/><text x="1169" y="141" class="t" font-size="13" font-weight="600" fill="#e7f2fb">Export joblib</text><line x1="1168" y1="150" x2="1296" y2="150" stroke="rgba(255,255,255,.10)"/><text x="1169" y="168" class="m" font-size="10.5" fill="#9db2c6">model.joblib</text><text x="1169" y="185" class="m" font-size="10.5" fill="#9db2c6">scaler.joblib</text><text x="1169" y="202" class="m" font-size="10.5" fill="#9db2c6">meta.json</text><text x="40" y="290" class="m" font-size="10.4" fill="#6f8498">Validacion (notebook+paper): StratifiedGroupKFold(5) por paciente · umbral · PCA/LDA · test: recall+ 0.50 · F1+ 0.56 · balanced acc 0.72</text><rect x="28" y="466" width="1324" height="172" rx="8" fill="none" stroke="#35c3f2" stroke-width="1.1" stroke-dasharray="2 5" opacity="0.5"/><text x="42" y="458" class="m" font-size="11" letter-spacing="0.06em" fill="#35c3f2">B · INFERENCIA EN TIEMPO REAL (CADA VEZ QUE EL USUARIO TOSE)</text><rect x="40" y="486" width="152" height="90" rx="6" fill="#17303f" stroke="#35c3f2" stroke-width="1.4"/><text x="53" y="509" class="t" font-size="13" font-weight="600" fill="#bfeafd">Usuario tose</text><line x1="52" y1="518" x2="180" y2="518" stroke="rgba(255,255,255,.10)"/><text x="53" y="536" class="m" font-size="10.5" fill="#9db2c6">navegador graba</text><text x="53" y="553" class="m" font-size="10.5" fill="#9db2c6">WAV 16-bit</text><text x="53" y="570" class="m" font-size="10.5" fill="#9db2c6">onda en vivo</text><line x1="192" y1="531.0" x2="226" y2="531.0" stroke="#00bfff" stroke-width="1.7" marker-end="url(#aCy)"/><rect x="226" y="486" width="152" height="90" rx="6" fill="#17303f" stroke="#35c3f2" stroke-width="1.4"/><text x="239" y="509" class="t" font-size="13" font-weight="600" fill="#bfeafd">POST /predict</text><line x1="238" y1="518" x2="366" y2="518" stroke="rgba(255,255,255,.10)"/><text x="239" y="536" class="m" font-size="10.5" fill="#9db2c6">audio+consent</text><text x="239" y="553" class="m" font-size="10.5" fill="#9db2c6">HTTPS</text><text x="239" y="570" class="m" font-size="10.5" fill="#9db2c6">-&gt; FastAPI</text><line x1="378" y1="531.0" x2="412" y2="531.0" stroke="#00bfff" stroke-width="1.7" marker-end="url(#aCy)"/><rect x="412" y="486" width="152" height="90" rx="6" fill="#17303f" stroke="#35c3f2" stroke-width="1.4"/><text x="425" y="509" class="t" font-size="13" font-weight="600" fill="#bfeafd">cargar()</text><line x1="424" y1="518" x2="552" y2="518" stroke="rgba(255,255,255,.10)"/><text x="425" y="536" class="m" font-size="10.5" fill="#9db2c6">librosa.load</text><text x="425" y="553" class="m" font-size="10.5" fill="#9db2c6">sr=22050</text><text x="425" y="570" class="m" font-size="10.5" fill="#9db2c6">-&gt; senal</text><line x1="564" y1="531.0" x2="598" y2="531.0" stroke="#00bfff" stroke-width="1.7" marker-end="url(#aCy)"/><rect x="598" y="486" width="152" height="90" rx="6" fill="#17303f" stroke="#35c3f2" stroke-width="1.4"/><text x="611" y="509" class="t" font-size="13" font-weight="600" fill="#bfeafd">Guarda silencio</text><line x1="610" y1="518" x2="738" y2="518" stroke="rgba(255,255,255,.10)"/><text x="611" y="536" class="m" font-size="10.5" fill="#9db2c6">pico&gt;=0.03 o</text><text x="611" y="553" class="m" font-size="10.5" fill="#9db2c6">pico&gt;=8x fondo</text><text x="611" y="570" class="m" font-size="10.5" fill="#9db2c6">sino: sin_tos</text><line x1="750" y1="531.0" x2="784" y2="531.0" stroke="#00bfff" stroke-width="1.7" marker-end="url(#aCy)"/><rect x="784" y="486" width="152" height="90" rx="6" fill="#17303f" stroke="#35c3f2" stroke-width="1.4"/><text x="797" y="509" class="t" font-size="13" font-weight="600" fill="#bfeafd">features_de_senal</text><line x1="796" y1="518" x2="924" y2="518" stroke="rgba(255,255,255,.10)"/><text x="797" y="536" class="m" font-size="10.5" fill="#9db2c6">MFCC+espec. 64</text><text x="797" y="553" class="m" font-size="10.5" fill="#9db2c6">MISMO codigo</text><text x="797" y="570" class="m" font-size="10.5" fill="#9db2c6">que en train</text><line x1="936" y1="531.0" x2="970" y2="531.0" stroke="#00bfff" stroke-width="1.7" marker-end="url(#aCy)"/><rect x="970" y="486" width="152" height="90" rx="6" fill="#17303f" stroke="#35c3f2" stroke-width="1.4"/><text x="983" y="509" class="t" font-size="13" font-weight="600" fill="#bfeafd">scaler.transform</text><line x1="982" y1="518" x2="1110" y2="518" stroke="rgba(255,255,255,.10)"/><text x="983" y="536" class="m" font-size="10.5" fill="#9db2c6">el MISMO</text><text x="983" y="553" class="m" font-size="10.5" fill="#9db2c6">scaler de train</text><text x="983" y="570" class="m" font-size="10.5" fill="#9db2c6">(mu/sigma)</text><line x1="1122" y1="531.0" x2="1156" y2="531.0" stroke="#00bfff" stroke-width="1.7" marker-end="url(#aCy)"/><rect x="1156" y="486" width="152" height="90" rx="6" fill="#17303f" stroke="#35c3f2" stroke-width="1.4"/><text x="1169" y="509" class="t" font-size="13" font-weight="600" fill="#bfeafd">predict_proba</text><line x1="1168" y1="518" x2="1296" y2="518" stroke="rgba(255,255,255,.10)"/><text x="1169" y="536" class="m" font-size="10.5" fill="#9db2c6">SVM -&gt; prob</text><text x="1169" y="553" class="m" font-size="10.5" fill="#9db2c6">banda de riesgo</text><text x="1169" y="570" class="m" font-size="10.5" fill="#9db2c6">-&gt; medidor</text><line x1="674.0" y1="576" x2="674.0" y2="616" stroke="rgba(157,178,198,.55)" stroke-width="1.4" marker-end="url(#aMut)"/><rect x="578.0" y="618" width="192" height="28" rx="6" fill="#162230" stroke="rgba(255,255,255,.20)"/><text x="674.0" y="636" text-anchor="middle" class="m" font-size="10.2" fill="#9db2c6">silencio -> "No detectamos una tos"</text><path d="M 1232.0 208 L 1232.0 372 L 1046.0 372 L 1046.0 486" fill="none" stroke="#f7c02e" stroke-width="2.4" marker-end="url(#aAm)" filter="url(#ag)"/><rect x="388" y="345" width="604" height="54" rx="8" fill="#162230" stroke="#f7c02e" stroke-width="1.4" filter="url(#ag)"/><text x="690.0" y="366" text-anchor="middle" class="t" font-size="13" font-weight="700" fill="#f7c02e">El modelo YA ENTRENADO se carga en memoria y califica cada tos</text><text x="690.0" y="387" text-anchor="middle" class="m" font-size="10.6" fill="#9db2c6">no se re-entrena en vivo · no hay numero al azar · la misma tos da el mismo %</text><line x1="26" y1="704" x2="48" y2="704" stroke="#00bfff" stroke-width="2"/><text x="54" y="708" class="m" font-size="10.5" fill="#9db2c6">flujo en vivo (cian)</text><line x1="230" y1="704" x2="252" y2="704" stroke="#f7c02e" stroke-width="2.4"/><text x="258" y="708" class="m" font-size="10.5" fill="#9db2c6">el modelo entrenado viaja (ambar)</text><line x1="560" y1="704" x2="582" y2="704" stroke="rgba(157,178,198,.55)" stroke-width="1.6"/><text x="588" y="708" class="m" font-size="10.5" fill="#9db2c6">paso offline</text></svg>